# xmcd CD database file
#
# Track frame offsets:
#	150
#	23236
#	35417
#	45878
#	64957
#	77173
#	91747
#	107229
#	119584
#	136259
#
# Disc length: 2094 seconds
#
# Revision: 1
# Processed by: cddbd v1.5.2PL0 Copyright (c) Steve Scherf et al.
# Submitted via: CDex 1.51
#
DISCID=7d082c0a
DTITLE=Randy Newman - Harps and Angels
DYEAR=2008
DGENRE=Blues
TTITLE0=Randy Newman - Harps and Angels
TTITLE1=Randy Newman - Losing You
TTITLE2=Randy Newman - Laugh and Be Happy
TTITLE3=Randy Newman - A Few Words
TTITLE4=Randy Newman - A Piece of the Pie
TTITLE5=Randy Newman - Easy Street (3:14)
TTITLE6=Randy Newman - Korean Parents
TTITLE7=Randy Newman - Only a Girl
TTITLE8=Randy Newman - Potholes
TTITLE9=Randy Newman - Feels Like Home
EXTD=YEAR: 2008
EXTT0=
EXTT1=
EXTT2=
EXTT3=
EXTT4=
EXTT5=
EXTT6=
EXTT7=
EXTT8=
EXTT9=
PLAYORDER=
